<svg xmlns="http://www.w3.org/2000/svg" width="960" height="540"><path d="M82,659L-59,668L215,662Z" fill="#97a4b7" stroke="#97a4b7" stroke-width="1.51"/><path d="M6,-110L123,-109L306,-129Z" fill="#f9f0f1" stroke="#f9f0f1" stroke-width="1.51"/><path d="M388,660L215,662L643,665Z" fill="#9b697f" stroke="#9b697f" stroke-width="1.51"/><path d="M648,-104L754,-100L912,-119Z" fill="#c0abbb" stroke="#c0abbb" stroke-width="1.51"/><path d="M523,-126L648,-104L912,-119Z" fill="#cfb0bd" stroke="#cfb0bd" stroke-width="1.51"/><path d="M895,635L824,640L946,644Z" fill="#555c7b" stroke="#555c7b" stroke-width="1.51"/><path d="M824,640L727,656L946,644Z" fill="#5b5c7c" stroke="#5b5c7c" stroke-width="1.51"/><path d="M912,-119L975,-108L1029,-117Z" fill="#a4a9bb" stroke="#a4a9bb" stroke-width="1.51"/><path d="M946,644L727,656L1044,647Z" fill="#525c7d" stroke="#525c7d" stroke-width="1.51"/><path d="M727,656L643,665L1044,647Z" fill="#5f5d7d" stroke="#5f5d7d" stroke-width="1.51"/><path d="M982,192L978,251L1049,267Z" fill="#9d687f" stroke="#9d687f" stroke-width="1.51"/><path d="M982,-25L1046,67L1054,-41Z" fill="#9aa4b7" stroke="#9aa4b7" stroke-width="1.51"/><path d="M982,192L1049,267L1059,179Z" fill="#9f697f" stroke="#9f697f" stroke-width="1.51"/><path d="M1046,67L1030,120L1059,179Z" fill="#a08194" stroke="#a08194" stroke-width="1.51"/><path d="M1054,-41L1046,67L1059,179Z" fill="#9c93a6" stroke="#9c93a6" stroke-width="1.51"/><path d="M1026,498L989,517L1062,576Z" fill="#575c7c" stroke="#575c7c" stroke-width="1.51"/><path d="M989,517L973,549L1062,576Z" fill="#575c7b" stroke="#575c7b" stroke-width="1.51"/><path d="M973,549L1044,647L1062,576Z" fill="#4e5c7d" stroke="#4e5c7d" stroke-width="1.51"/><path d="M981,425L1023,432L1064,350Z" fill="#7a627f" stroke="#7a627f" stroke-width="1.51"/><path d="M950,324L981,425L1064,350Z" fill="#866580" stroke="#866580" stroke-width="1.51"/><path d="M1049,267L950,324L1064,350Z" fill="#8f6780" stroke="#8f6780" stroke-width="1.51"/><path d="M1026,498L1062,576L1064,350Z" fill="#645e7d" stroke="#645e7d" stroke-width="1.51"/><path d="M1023,432L1026,498L1064,350Z" fill="#72617f" stroke="#72617f" stroke-width="1.51"/><path d="M1059,179L1049,267L1064,350Z" fill="#946880" stroke="#946880" stroke-width="1.51"/><path d="M975,-108L982,-25L1029,-117Z" fill="#a1a7b9" stroke="#a1a7b9" stroke-width="1.51"/><path d="M978,251L950,324L1049,267Z" fill="#97677f" stroke="#97677f" stroke-width="1.51"/><path d="M1029,-117L982,-25L1054,-41Z" fill="#9da6b9" stroke="#9da6b9" stroke-width="1.51"/><path d="M1030,120L982,192L1059,179Z" fill="#a37286" stroke="#a37286" stroke-width="1.51"/><path d="M973,549L946,644L1044,647Z" fill="#4f5c7c" stroke="#4f5c7c" stroke-width="1.51"/><path d="M982,-25L951,65L1046,67Z" fill="#9e9fb1" stroke="#9e9fb1" stroke-width="1.51"/><path d="M972,100L1030,120L1046,67Z" fill="#a18a9c" stroke="#a18a9c" stroke-width="1.51"/><path d="M951,65L972,100L1046,67Z" fill="#a290a2" stroke="#a290a2" stroke-width="1.51"/><path d="M754,-100L811,-94L912,-119Z" fill="#b4a9ba" stroke="#b4a9ba" stroke-width="1.51"/><path d="M1023,432L981,425L1026,498Z" fill="#6e607e" stroke="#6e607e" stroke-width="1.51"/><path d="M981,425L989,517L1026,498Z" fill="#675e7d" stroke="#675e7d" stroke-width="1.51"/><path d="M972,100L982,192L1030,120Z" fill="#a57b8f" stroke="#a57b8f" stroke-width="1.51"/><path d="M529,646L388,660L643,665Z" fill="#8f6780" stroke="#8f6780" stroke-width="1.51"/><path d="M905,556L946,644L973,549Z" fill="#595c7c" stroke="#595c7c" stroke-width="1.51"/><path d="M950,324L909,413L981,425Z" fill="#85637f" stroke="#85637f" stroke-width="1.51"/><path d="M972,100L893,173L982,192Z" fill="#aa7589" stroke="#aa7589" stroke-width="1.51"/><path d="M909,248L978,251L982,192Z" fill="#a2687f" stroke="#a2687f" stroke-width="1.51"/><path d="M975,-108L901,-35L982,-25Z" fill="#a4a6b8" stroke="#a4a6b8" stroke-width="1.51"/><path d="M901,-35L951,65L982,-25Z" fill="#a3a4b6" stroke="#a3a4b6" stroke-width="1.51"/><path d="M981,425L912,479L989,517Z" fill="#6d5e7d" stroke="#6d5e7d" stroke-width="1.51"/><path d="M912,479L973,549L989,517Z" fill="#615c7b" stroke="#615c7b" stroke-width="1.51"/><path d="M877,136L893,173L972,100Z" fill="#ac7c8f" stroke="#ac7c8f" stroke-width="1.51"/><path d="M912,479L905,556L973,549Z" fill="#625c7b" stroke="#625c7b" stroke-width="1.51"/><path d="M912,-119L901,-35L975,-108Z" fill="#a7a7b9" stroke="#a7a7b9" stroke-width="1.51"/><path d="M909,248L950,324L978,251Z" fill="#9c677f" stroke="#9c677f" stroke-width="1.51"/><path d="M909,413L912,479L981,425Z" fill="#78607e" stroke="#78607e" stroke-width="1.51"/><path d="M893,173L909,248L982,192Z" fill="#a9687e" stroke="#a9687e" stroke-width="1.51"/><path d="M905,556L895,635L946,644Z" fill="#575c7c" stroke="#575c7c" stroke-width="1.51"/><path d="M901,-35L877,54L951,65Z" fill="#a6a1b3" stroke="#a6a1b3" stroke-width="1.51"/><path d="M951,65L877,136L972,100Z" fill="#a9889b" stroke="#a9889b" stroke-width="1.51"/><path d="M873,343L909,413L950,324Z" fill="#8f6480" stroke="#8f6480" stroke-width="1.51"/><path d="M909,248L873,343L950,324Z" fill="#996680" stroke="#996680" stroke-width="1.51"/><path d="M877,54L877,136L951,65Z" fill="#ab8ea0" stroke="#ab8ea0" stroke-width="1.51"/><path d="M304,655L215,662L388,660Z" fill="#a1788c" stroke="#a1788c" stroke-width="1.51"/><path d="M818,589L895,635L905,556Z" fill="#5e5c7b" stroke="#5e5c7b" stroke-width="1.51"/><path d="M821,289L873,343L909,248Z" fill="#9f657f" stroke="#9f657f" stroke-width="1.51"/><path d="M893,173L822,211L909,248Z" fill="#ab677e" stroke="#ab677e" stroke-width="1.51"/><path d="M873,343L828,430L909,413Z" fill="#89627f" stroke="#89627f" stroke-width="1.51"/><path d="M811,-94L901,-35L912,-119Z" fill="#ada7b9" stroke="#ada7b9" stroke-width="1.51"/><path d="M821,481L905,556L912,479Z" fill="#6c5c7c" stroke="#6c5c7c" stroke-width="1.51"/><path d="M909,413L828,430L912,479Z" fill="#7d5f7d" stroke="#7d5f7d" stroke-width="1.51"/><path d="M828,430L821,481L912,479Z" fill="#795e7d" stroke="#795e7d" stroke-width="1.51"/><path d="M457,647L388,660L529,646Z" fill="#976880" stroke="#976880" stroke-width="1.51"/><path d="M799,-35L877,54L901,-35Z" fill="#aba4b5" stroke="#aba4b5" stroke-width="1.51"/><path d="M822,211L821,289L909,248Z" fill="#a7667f" stroke="#a7667f" stroke-width="1.51"/><path d="M821,481L818,589L905,556Z" fill="#685b7b" stroke="#685b7b" stroke-width="1.51"/><path d="M818,589L824,640L895,635Z" fill="#5d5c7b" stroke="#5d5c7b" stroke-width="1.51"/><path d="M811,-94L799,-35L901,-35Z" fill="#b0a6b8" stroke="#b0a6b8" stroke-width="1.51"/><path d="M799,-35L801,58L877,54Z" fill="#b0a3b4" stroke="#b0a3b4" stroke-width="1.51"/><path d="M794,106L877,136L877,54Z" fill="#b1889b" stroke="#b1889b" stroke-width="1.51"/><path d="M877,136L822,211L893,173Z" fill="#b06d82" stroke="#b06d82" stroke-width="1.51"/><path d="M794,329L828,430L873,343Z" fill="#95647f" stroke="#95647f" stroke-width="1.51"/><path d="M794,106L822,211L877,136Z" fill="#b4768a" stroke="#b4768a" stroke-width="1.51"/><path d="M801,58L794,106L877,54Z" fill="#b392a4" stroke="#b392a4" stroke-width="1.51"/><path d="M821,289L794,329L873,343Z" fill="#9e657f" stroke="#9e657f" stroke-width="1.51"/><path d="M523,-126L580,-107L648,-104Z" fill="#e3b4be" stroke="#e3b4be" stroke-width="1.51"/><path d="M799,-35L738,45L801,58Z" fill="#b9a6b5" stroke="#b9a6b5" stroke-width="1.51"/><path d="M763,207L724,286L821,289Z" fill="#b36880" stroke="#b36880" stroke-width="1.51"/><path d="M741,571L818,589L821,481Z" fill="#715d7c" stroke="#715d7c" stroke-width="1.51"/><path d="M722,480L741,571L821,481Z" fill="#7c5f7d" stroke="#7c5f7d" stroke-width="1.51"/><path d="M763,207L821,289L822,211Z" fill="#b1687f" stroke="#b1687f" stroke-width="1.51"/><path d="M794,106L763,207L822,211Z" fill="#bb6f83" stroke="#bb6f83" stroke-width="1.51"/><path d="M747,416L821,481L828,430Z" fill="#87617e" stroke="#87617e" stroke-width="1.51"/><path d="M794,329L747,416L828,430Z" fill="#966480" stroke="#966480" stroke-width="1.51"/><path d="M741,571L727,656L818,589Z" fill="#6e5f7d" stroke="#6e5f7d" stroke-width="1.51"/><path d="M747,416L722,480L821,481Z" fill="#8a617e" stroke="#8a617e" stroke-width="1.51"/><path d="M818,589L727,656L824,640Z" fill="#665e7d" stroke="#665e7d" stroke-width="1.51"/><path d="M754,102L763,207L794,106Z" fill="#bf7c8f" stroke="#bf7c8f" stroke-width="1.51"/><path d="M724,286L794,329L821,289Z" fill="#aa6780" stroke="#aa6780" stroke-width="1.51"/><path d="M731,344L747,416L794,329Z" fill="#a36681" stroke="#a36681" stroke-width="1.51"/><path d="M751,-52L799,-35L811,-94Z" fill="#baa9b9" stroke="#baa9b9" stroke-width="1.51"/><path d="M751,-52L738,45L799,-35Z" fill="#bda8b7" stroke="#bda8b7" stroke-width="1.51"/><path d="M754,-100L751,-52L811,-94Z" fill="#bfaaba" stroke="#bfaaba" stroke-width="1.51"/><path d="M754,102L794,106L801,58Z" fill="#bc8e9f" stroke="#bc8e9f" stroke-width="1.51"/><path d="M738,45L754,102L801,58Z" fill="#be96a6" stroke="#be96a6" stroke-width="1.51"/><path d="M754,102L686,180L763,207Z" fill="#c57488" stroke="#c57488" stroke-width="1.51"/><path d="M724,286L731,344L794,329Z" fill="#ac6881" stroke="#ac6881" stroke-width="1.51"/><path d="M686,180L669,271L724,286Z" fill="#c26b81" stroke="#c26b81" stroke-width="1.51"/><path d="M685,-34L738,45L751,-52Z" fill="#c5aab8" stroke="#c5aab8" stroke-width="1.51"/><path d="M675,140L686,180L754,102Z" fill="#ca7e8f" stroke="#ca7e8f" stroke-width="1.51"/><path d="M686,180L724,286L763,207Z" fill="#c06b80" stroke="#c06b80" stroke-width="1.51"/><path d="M677,566L727,656L741,571Z" fill="#79607e" stroke="#79607e" stroke-width="1.51"/><path d="M722,480L677,566L741,571Z" fill="#80607e" stroke="#80607e" stroke-width="1.51"/><path d="M731,344L691,411L747,416Z" fill="#a26681" stroke="#a26681" stroke-width="1.51"/><path d="M691,411L722,480L747,416Z" fill="#976480" stroke="#976480" stroke-width="1.51"/><path d="M685,-34L751,-52L754,-100Z" fill="#c5abba" stroke="#c5abba" stroke-width="1.51"/><path d="M648,-104L685,-34L754,-100Z" fill="#cdaebb" stroke="#cdaebb" stroke-width="1.51"/><path d="M738,45L670,68L754,102Z" fill="#c797a6" stroke="#c797a6" stroke-width="1.51"/><path d="M670,68L675,140L754,102Z" fill="#cb8c9c" stroke="#cb8c9c" stroke-width="1.51"/><path d="M656,491L677,566L722,480Z" fill="#89617e" stroke="#89617e" stroke-width="1.51"/><path d="M675,347L691,411L731,344Z" fill="#ac6882" stroke="#ac6882" stroke-width="1.51"/><path d="M685,-34L670,68L738,45Z" fill="#c9a8b5" stroke="#c9a8b5" stroke-width="1.51"/><path d="M724,286L675,347L731,344Z" fill="#b26982" stroke="#b26982" stroke-width="1.51"/><path d="M677,566L643,665L727,656Z" fill="#7a627f" stroke="#7a627f" stroke-width="1.51"/><path d="M691,411L656,491L722,480Z" fill="#966480" stroke="#966480" stroke-width="1.51"/><path d="M669,271L675,347L724,286Z" fill="#b96a82" stroke="#b96a82" stroke-width="1.51"/><path d="M598,-53L584,67L670,68Z" fill="#d8abb7" stroke="#d8abb7" stroke-width="1.51"/><path d="M670,68L607,113L675,140Z" fill="#d48d9b" stroke="#d48d9b" stroke-width="1.51"/><path d="M616,641L643,665L677,566Z" fill="#82637f" stroke="#82637f" stroke-width="1.51"/><path d="M598,-53L670,68L685,-34Z" fill="#d3adb9" stroke="#d3adb9" stroke-width="1.51"/><path d="M648,-104L598,-53L685,-34Z" fill="#d6afbb" stroke="#d6afbb" stroke-width="1.51"/><path d="M603,247L669,271L686,180Z" fill="#cb6d82" stroke="#cb6d82" stroke-width="1.51"/><path d="M589,203L603,247L686,180Z" fill="#d36e82" stroke="#d36e82" stroke-width="1.51"/><path d="M675,347L569,399L691,411Z" fill="#b16982" stroke="#b16982" stroke-width="1.51"/><path d="M569,399L656,491L691,411Z" fill="#a66782" stroke="#a66782" stroke-width="1.51"/><path d="M669,271L579,341L675,347Z" fill="#bf6b83" stroke="#bf6b83" stroke-width="1.51"/><path d="M675,140L589,203L686,180Z" fill="#d37385" stroke="#d37385" stroke-width="1.51"/><path d="M581,505L584,576L656,491Z" fill="#956480" stroke="#956480" stroke-width="1.51"/><path d="M603,247L579,341L669,271Z" fill="#c86d83" stroke="#c86d83" stroke-width="1.51"/><path d="M607,113L589,203L675,140Z" fill="#d87c8d" stroke="#d87c8d" stroke-width="1.51"/><path d="M579,341L569,399L675,347Z" fill="#bc6b83" stroke="#bc6b83" stroke-width="1.51"/><path d="M656,491L584,576L677,566Z" fill="#8d627f" stroke="#8d627f" stroke-width="1.51"/><path d="M584,576L616,641L677,566Z" fill="#896480" stroke="#896480" stroke-width="1.51"/><path d="M569,399L581,505L656,491Z" fill="#a46781" stroke="#a46781" stroke-width="1.51"/><path d="M584,67L607,113L670,68Z" fill="#d997a4" stroke="#d997a4" stroke-width="1.51"/><path d="M616,641L529,646L643,665Z" fill="#876581" stroke="#876581" stroke-width="1.51"/><path d="M580,-107L598,-53L648,-104Z" fill="#deb2bd" stroke="#deb2bd" stroke-width="1.51"/><path d="M359,-129L439,-108L523,-126Z" fill="#f6b7bd" stroke="#f6b7bd" stroke-width="1.51"/><path d="M569,399L537,474L581,505Z" fill="#aa6781" stroke="#aa6781" stroke-width="1.51"/><path d="M535,54L584,67L598,-53Z" fill="#dfafb9" stroke="#dfafb9" stroke-width="1.51"/><path d="M501,-19L535,54L598,-53Z" fill="#e4b1b9" stroke="#e4b1b9" stroke-width="1.51"/><path d="M520,326L579,341L603,247Z" fill="#cc6e83" stroke="#cc6e83" stroke-width="1.51"/><path d="M513,109L589,203L607,113Z" fill="#e08291" stroke="#e08291" stroke-width="1.51"/><path d="M584,576L529,646L616,641Z" fill="#8d6680" stroke="#8d6680" stroke-width="1.51"/><path d="M513,109L511,201L589,203Z" fill="#e37787" stroke="#e37787" stroke-width="1.51"/><path d="M496,269L520,326L603,247Z" fill="#d36f83" stroke="#d36f83" stroke-width="1.51"/><path d="M584,67L513,109L607,113Z" fill="#e093a0" stroke="#e093a0" stroke-width="1.51"/><path d="M589,203L511,201L603,247Z" fill="#da6f82" stroke="#da6f82" stroke-width="1.51"/><path d="M511,201L496,269L603,247Z" fill="#da6f82" stroke="#da6f82" stroke-width="1.51"/><path d="M580,-107L501,-19L598,-53Z" fill="#e4b2bc" stroke="#e4b2bc" stroke-width="1.51"/><path d="M523,-126L501,-19L580,-107Z" fill="#e8b4bd" stroke="#e8b4bd" stroke-width="1.51"/><path d="M535,54L513,109L584,67Z" fill="#e39ca6" stroke="#e39ca6" stroke-width="1.51"/><path d="M581,505L509,577L584,576Z" fill="#98657f" stroke="#98657f" stroke-width="1.51"/><path d="M509,577L529,646L584,576Z" fill="#946680" stroke="#946680" stroke-width="1.51"/><path d="M505,444L537,474L569,399Z" fill="#b26981" stroke="#b26981" stroke-width="1.51"/><path d="M520,326L569,399L579,341Z" fill="#c56d84" stroke="#c56d84" stroke-width="1.51"/><path d="M537,474L509,577L581,505Z" fill="#9e657f" stroke="#9e657f" stroke-width="1.51"/><path d="M520,326L505,444L569,399Z" fill="#bf6b83" stroke="#bf6b83" stroke-width="1.51"/><path d="M434,134L511,201L513,109Z" fill="#e9818e" stroke="#e9818e" stroke-width="1.51"/><path d="M443,368L505,444L520,326Z" fill="#c66c83" stroke="#c66c83" stroke-width="1.51"/><path d="M439,-108L501,-19L523,-126Z" fill="#eeb5bc" stroke="#eeb5bc" stroke-width="1.51"/><path d="M509,577L457,647L529,646Z" fill="#96677f" stroke="#96677f" stroke-width="1.51"/><path d="M501,-19L431,31L535,54Z" fill="#e9b1b8" stroke="#e9b1b8" stroke-width="1.51"/><path d="M464,484L509,577L537,474Z" fill="#a4667f" stroke="#a4667f" stroke-width="1.51"/><path d="M505,444L464,484L537,474Z" fill="#ae6880" stroke="#ae6880" stroke-width="1.51"/><path d="M464,484L435,548L509,577Z" fill="#a4667f" stroke="#a4667f" stroke-width="1.51"/><path d="M431,31L513,109L535,54Z" fill="#e9a1aa" stroke="#e9a1aa" stroke-width="1.51"/><path d="M454,209L496,269L511,201Z" fill="#e27082" stroke="#e27082" stroke-width="1.51"/><path d="M434,134L454,209L511,201Z" fill="#ea7483" stroke="#ea7483" stroke-width="1.51"/><path d="M422,277L443,368L496,269Z" fill="#d96f83" stroke="#d96f83" stroke-width="1.51"/><path d="M496,269L443,368L520,326Z" fill="#d26e83" stroke="#d26e83" stroke-width="1.51"/><path d="M439,-108L422,-21L501,-19Z" fill="#f1b4bb" stroke="#f1b4bb" stroke-width="1.51"/><path d="M443,368L425,441L505,444Z" fill="#c06b82" stroke="#c06b82" stroke-width="1.51"/><path d="M431,31L434,134L513,109Z" fill="#ee98a0" stroke="#ee98a0" stroke-width="1.51"/><path d="M435,548L457,647L509,577Z" fill="#9e677f" stroke="#9e677f" stroke-width="1.51"/><path d="M425,441L464,484L505,444Z" fill="#b66980" stroke="#b66980" stroke-width="1.51"/><path d="M422,-21L431,31L501,-19Z" fill="#f0b3b9" stroke="#f0b3b9" stroke-width="1.51"/><path d="M454,209L422,277L496,269Z" fill="#e17082" stroke="#e17082" stroke-width="1.51"/><path d="M431,31L391,112L434,134Z" fill="#f298a0" stroke="#f298a0" stroke-width="1.51"/><path d="M435,548L388,660L457,647Z" fill="#9f687f" stroke="#9f687f" stroke-width="1.51"/><path d="M353,499L435,548L464,484Z" fill="#ae687e" stroke="#ae687e" stroke-width="1.51"/><path d="M425,441L353,499L464,484Z" fill="#b7697f" stroke="#b7697f" stroke-width="1.51"/><path d="M422,277L348,327L443,368Z" fill="#db6f82" stroke="#db6f82" stroke-width="1.51"/><path d="M434,134L364,211L454,209Z" fill="#ef7382" stroke="#ef7382" stroke-width="1.51"/><path d="M364,211L422,277L454,209Z" fill="#e97181" stroke="#e97181" stroke-width="1.51"/><path d="M345,548L388,660L435,548Z" fill="#a7687f" stroke="#a7687f" stroke-width="1.51"/><path d="M362,-40L422,-21L439,-108Z" fill="#f7b6bb" stroke="#f7b6bb" stroke-width="1.51"/><path d="M123,-109L231,-104L306,-129Z" fill="#fcddde" stroke="#fcddde" stroke-width="1.51"/><path d="M372,444L353,499L425,441Z" fill="#be6a7f" stroke="#be6a7f" stroke-width="1.51"/><path d="M354,64L391,112L431,31Z" fill="#f6a1a8" stroke="#f6a1a8" stroke-width="1.51"/><path d="M391,112L364,211L434,134Z" fill="#f4808c" stroke="#f4808c" stroke-width="1.51"/><path d="M359,-129L362,-40L439,-108Z" fill="#fcb8bc" stroke="#fcb8bc" stroke-width="1.51"/><path d="M372,444L425,441L443,368Z" fill="#c56c81" stroke="#c56c81" stroke-width="1.51"/><path d="M348,327L372,444L443,368Z" fill="#d26d82" stroke="#d26d82" stroke-width="1.51"/><path d="M364,211L355,271L422,277Z" fill="#e97181" stroke="#e97181" stroke-width="1.51"/><path d="M353,499L345,548L435,548Z" fill="#af687e" stroke="#af687e" stroke-width="1.51"/><path d="M422,-21L362,-40L431,31Z" fill="#f6b4b9" stroke="#f6b4b9" stroke-width="1.51"/><path d="M362,-40L354,64L431,31Z" fill="#f7b3b7" stroke="#f7b3b7" stroke-width="1.51"/><path d="M355,271L348,327L422,277Z" fill="#e47082" stroke="#e47082" stroke-width="1.51"/><path d="M311,32L354,64L362,-40Z" fill="#f9b8bb" stroke="#f9b8bb" stroke-width="1.51"/><path d="M311,-18L311,32L362,-40Z" fill="#fbbdc0" stroke="#fbbdc0" stroke-width="1.51"/><path d="M303,102L306,205L364,211Z" fill="#f8838d" stroke="#f8838d" stroke-width="1.51"/><path d="M348,327L286,368L372,444Z" fill="#d57487" stroke="#d57487" stroke-width="1.51"/><path d="M345,548L306,583L388,660Z" fill="#a96d81" stroke="#a96d81" stroke-width="1.51"/><path d="M306,583L304,655L388,660Z" fill="#a57084" stroke="#a57084" stroke-width="1.51"/><path d="M303,102L364,211L391,112Z" fill="#f88790" stroke="#f88790" stroke-width="1.51"/><path d="M354,64L303,102L391,112Z" fill="#fa9ca1" stroke="#fa9ca1" stroke-width="1.51"/><path d="M359,-129L306,-129L362,-40Z" fill="#ffbdc0" stroke="#ffbdc0" stroke-width="1.51"/><path d="M306,-129L311,-18L362,-40Z" fill="#fdc0c2" stroke="#fdc0c2" stroke-width="1.51"/><path d="M306,205L355,271L364,211Z" fill="#f07784" stroke="#f07784" stroke-width="1.51"/><path d="M273,418L311,483L372,444Z" fill="#c47689" stroke="#c47689" stroke-width="1.51"/><path d="M286,368L273,418L372,444Z" fill="#ce7a8c" stroke="#ce7a8c" stroke-width="1.51"/><path d="M311,483L353,499L372,444Z" fill="#bd6e82" stroke="#bd6e82" stroke-width="1.51"/><path d="M306,205L279,251L355,271Z" fill="#ef7f8b" stroke="#ef7f8b" stroke-width="1.51"/><path d="M279,251L348,327L355,271Z" fill="#e77a88" stroke="#e77a88" stroke-width="1.51"/><path d="M311,483L345,548L353,499Z" fill="#b56f83" stroke="#b56f83" stroke-width="1.51"/><path d="M311,32L303,102L354,64Z" fill="#faadb1" stroke="#faadb1" stroke-width="1.51"/><path d="M279,251L286,368L348,327Z" fill="#e2808e" stroke="#e2808e" stroke-width="1.51"/><path d="M311,483L306,583L345,548Z" fill="#b07287" stroke="#b07287" stroke-width="1.51"/><path d="M197,284L198,328L279,251Z" fill="#e896a0" stroke="#e896a0" stroke-width="1.51"/><path d="M279,251L198,328L286,368Z" fill="#e38d99" stroke="#e38d99" stroke-width="1.51"/><path d="M303,102L234,132L306,205Z" fill="#fa999f" stroke="#fa999f" stroke-width="1.51"/><path d="M234,132L226,177L306,205Z" fill="#fa969d" stroke="#fa969d" stroke-width="1.51"/><path d="M234,585L304,655L306,583Z" fill="#a77d90" stroke="#a77d90" stroke-width="1.51"/><path d="M235,477L234,585L306,583Z" fill="#ae8194" stroke="#ae8194" stroke-width="1.51"/><path d="M222,39L303,102L311,32Z" fill="#fabbbe" stroke="#fabbbe" stroke-width="1.51"/><path d="M233,-16L222,39L311,32Z" fill="#f8cfd0" stroke="#f8cfd0" stroke-width="1.51"/><path d="M306,-129L231,-104L311,-18Z" fill="#fdccce" stroke="#fdccce" stroke-width="1.51"/><path d="M231,-104L233,-16L311,-18Z" fill="#fbd1d2" stroke="#fbd1d2" stroke-width="1.51"/><path d="M233,-16L311,32L311,-18Z" fill="#fac8ca" stroke="#fac8ca" stroke-width="1.51"/><path d="M235,477L306,583L311,483Z" fill="#b47b8f" stroke="#b47b8f" stroke-width="1.51"/><path d="M273,418L235,477L311,483Z" fill="#c28192" stroke="#c28192" stroke-width="1.51"/><path d="M222,39L234,132L303,102Z" fill="#fab6b8" stroke="#fab6b8" stroke-width="1.51"/><path d="M234,585L215,662L304,655Z" fill="#a38497" stroke="#a38497" stroke-width="1.51"/><path d="M226,177L279,251L306,205Z" fill="#f58b95" stroke="#f58b95" stroke-width="1.51"/><path d="M201,397L273,418L286,368Z" fill="#d28a99" stroke="#d28a99" stroke-width="1.51"/><path d="M198,328L201,397L286,368Z" fill="#da929f" stroke="#da929f" stroke-width="1.51"/><path d="M226,177L197,284L279,251Z" fill="#f1949d" stroke="#f1949d" stroke-width="1.51"/><path d="M201,397L235,477L273,418Z" fill="#c98c9c" stroke="#c98c9c" stroke-width="1.51"/><path d="M131,52L166,136L222,39Z" fill="#f8d0d1" stroke="#f8d0d1" stroke-width="1.51"/><path d="M150,281L197,284L226,177Z" fill="#f09fa7" stroke="#f09fa7" stroke-width="1.51"/><path d="M129,175L150,281L226,177Z" fill="#f5a6ac" stroke="#f5a6ac" stroke-width="1.51"/><path d="M123,-109L130,-24L231,-104Z" fill="#f8ebeb" stroke="#f8ebeb" stroke-width="1.51"/><path d="M231,-104L130,-24L233,-16Z" fill="#f8e0e1" stroke="#f8e0e1" stroke-width="1.51"/><path d="M130,-24L222,39L233,-16Z" fill="#f6dfdf" stroke="#f6dfdf" stroke-width="1.51"/><path d="M166,136L226,177L234,132Z" fill="#faabb0" stroke="#faabb0" stroke-width="1.51"/><path d="M222,39L166,136L234,132Z" fill="#fabebf" stroke="#fabebf" stroke-width="1.51"/><path d="M146,492L129,584L234,585Z" fill="#aa97a9" stroke="#aa97a9" stroke-width="1.51"/><path d="M157,630L215,662L234,585Z" fill="#a290a2" stroke="#a290a2" stroke-width="1.51"/><path d="M146,492L234,585L235,477Z" fill="#b18fa0" stroke="#b18fa0" stroke-width="1.51"/><path d="M201,397L146,492L235,477Z" fill="#c195a5" stroke="#c195a5" stroke-width="1.51"/><path d="M157,630L82,659L215,662Z" fill="#9b9cae" stroke="#9b9cae" stroke-width="1.51"/><path d="M129,584L157,630L234,585Z" fill="#a497a9" stroke="#a497a9" stroke-width="1.51"/><path d="M133,414L146,492L201,397Z" fill="#c69fad" stroke="#c69fad" stroke-width="1.51"/><path d="M130,-24L131,52L222,39Z" fill="#f4e7e7" stroke="#f4e7e7" stroke-width="1.51"/><path d="M166,136L129,175L226,177Z" fill="#faafb3" stroke="#faafb3" stroke-width="1.51"/><path d="M197,284L150,281L198,328Z" fill="#e6a0aa" stroke="#e6a0aa" stroke-width="1.51"/><path d="M198,328L122,349L201,397Z" fill="#dba0ad" stroke="#dba0ad" stroke-width="1.51"/><path d="M122,349L133,414L201,397Z" fill="#d3a4b0" stroke="#d3a4b0" stroke-width="1.51"/><path d="M150,281L122,349L198,328Z" fill="#e2a6b0" stroke="#e2a6b0" stroke-width="1.51"/><path d="M76,511L129,584L146,492Z" fill="#aba3b4" stroke="#aba3b4" stroke-width="1.51"/><path d="M129,175L86,286L150,281Z" fill="#efb1b7" stroke="#efb1b7" stroke-width="1.51"/><path d="M131,52L86,113L166,136Z" fill="#f7d2d3" stroke="#f7d2d3" stroke-width="1.51"/><path d="M86,113L129,175L166,136Z" fill="#f9c3c5" stroke="#f9c3c5" stroke-width="1.51"/><path d="M72,171L86,286L129,175Z" fill="#f6b3b8" stroke="#f6b3b8" stroke-width="1.51"/><path d="M123,-109L82,-83L130,-24Z" fill="#f5f5f5" stroke="#f5f5f5" stroke-width="1.51"/><path d="M86,286L122,349L150,281Z" fill="#e4b0b8" stroke="#e4b0b8" stroke-width="1.51"/><path d="M129,584L82,659L157,630Z" fill="#9ca3b5" stroke="#9ca3b5" stroke-width="1.51"/><path d="M60,410L76,511L133,414Z" fill="#c3a9b7" stroke="#c3a9b7" stroke-width="1.51"/><path d="M133,414L76,511L146,492Z" fill="#baa6b6" stroke="#baa6b6" stroke-width="1.51"/><path d="M-18,647L-59,668L82,659Z" fill="#9aa6b9" stroke="#9aa6b9" stroke-width="1.51"/><path d="M6,-110L82,-83L123,-109Z" fill="#f7f7f7" stroke="#f7f7f7" stroke-width="1.51"/><path d="M56,577L82,659L129,584Z" fill="#a0a4b6" stroke="#a0a4b6" stroke-width="1.51"/><path d="M76,511L56,577L129,584Z" fill="#a8a4b5" stroke="#a8a4b5" stroke-width="1.51"/><path d="M86,113L72,171L129,175Z" fill="#fac1c3" stroke="#fac1c3" stroke-width="1.51"/><path d="M82,-83L63,-48L130,-24Z" fill="#f5f5f5" stroke="#f5f5f5" stroke-width="1.51"/><path d="M63,-48L63,68L130,-24Z" fill="#f3f3f3" stroke="#f3f3f3" stroke-width="1.51"/><path d="M130,-24L63,68L131,52Z" fill="#f3eeee" stroke="#f3eeee" stroke-width="1.51"/><path d="M63,68L86,113L131,52Z" fill="#f6dede" stroke="#f6dede" stroke-width="1.51"/><path d="M122,349L60,410L133,414Z" fill="#d1acb8" stroke="#d1acb8" stroke-width="1.51"/><path d="M59,344L60,410L122,349Z" fill="#d8aeb9" stroke="#d8aeb9" stroke-width="1.51"/><path d="M86,286L59,344L122,349Z" fill="#e1b0b9" stroke="#e1b0b9" stroke-width="1.51"/><path d="M-10,-8L-8,30L63,-48Z" fill="#f5f5f5" stroke="#f5f5f5" stroke-width="1.51"/><path d="M63,-48L-8,30L63,68Z" fill="#f3f3f3" stroke="#f3f3f3" stroke-width="1.51"/><path d="M-17,177L10,266L72,171Z" fill="#fab6ba" stroke="#fab6ba" stroke-width="1.51"/><path d="M60,410L-29,490L76,511Z" fill="#bda8b8" stroke="#bda8b8" stroke-width="1.51"/><path d="M56,577L1,590L82,659Z" fill="#a1a5b7" stroke="#a1a5b7" stroke-width="1.51"/><path d="M1,590L-18,647L82,659Z" fill="#9ea6b8" stroke="#9ea6b8" stroke-width="1.51"/><path d="M72,171L10,266L86,286Z" fill="#f2b4b9" stroke="#f2b4b9" stroke-width="1.51"/><path d="M10,266L59,344L86,286Z" fill="#e7b2ba" stroke="#e7b2ba" stroke-width="1.51"/><path d="M-13,125L72,171L86,113Z" fill="#fbc9cb" stroke="#fbc9cb" stroke-width="1.51"/><path d="M63,68L-13,125L86,113Z" fill="#f9d6d7" stroke="#f9d6d7" stroke-width="1.51"/><path d="M-30,427L-29,490L60,410Z" fill="#c5abba" stroke="#c5abba" stroke-width="1.51"/><path d="M6,-110L63,-48L82,-83Z" fill="#f7f7f7" stroke="#f7f7f7" stroke-width="1.51"/><path d="M-29,490L1,590L56,577Z" fill="#aaa6b7" stroke="#aaa6b7" stroke-width="1.51"/><path d="M59,344L12,357L60,410Z" fill="#d8afba" stroke="#d8afba" stroke-width="1.51"/><path d="M-29,490L56,577L76,511Z" fill="#aea5b7" stroke="#aea5b7" stroke-width="1.51"/><path d="M10,266L12,357L59,344Z" fill="#e3b1bb" stroke="#e3b1bb" stroke-width="1.51"/><path d="M-13,125L-17,177L72,171Z" fill="#fdc2c4" stroke="#fdc2c4" stroke-width="1.51"/><path d="M6,-110L-10,-8L63,-48Z" fill="#f7f7f7" stroke="#f7f7f7" stroke-width="1.51"/><path d="M-8,30L-13,125L63,68Z" fill="#f8e1e1" stroke="#f8e1e1" stroke-width="1.51"/><path d="M12,357L-30,427L60,410Z" fill="#d1aebb" stroke="#d1aebb" stroke-width="1.51"/><path d="M-80,216L-59,262L-17,177Z" fill="#f9b7bc" stroke="#f9b7bc" stroke-width="1.51"/><path d="M-75,24L-13,125L-8,30Z" fill="#f9e8e8" stroke="#f9e8e8" stroke-width="1.51"/><path d="M-29,490L-81,549L1,590Z" fill="#ada7b9" stroke="#ada7b9" stroke-width="1.51"/><path d="M-83,-51L-10,-8L6,-110Z" fill="#f9f9f9" stroke="#f9f9f9" stroke-width="1.51"/><path d="M-17,177L-59,262L10,266Z" fill="#f5b6bb" stroke="#f5b6bb" stroke-width="1.51"/><path d="M-75,368L-30,427L12,357Z" fill="#d7b0bc" stroke="#d7b0bc" stroke-width="1.51"/><path d="M10,266L-59,262L12,357Z" fill="#eab4bc" stroke="#eab4bc" stroke-width="1.51"/><path d="M-59,262L-75,368L12,357Z" fill="#e4b3bd" stroke="#e4b3bd" stroke-width="1.51"/><path d="M-100,-88L-83,-51L6,-110Z" fill="#fafafa" stroke="#fafafa" stroke-width="1.51"/><path d="M-81,549L-18,647L1,590Z" fill="#a5a7b9" stroke="#a5a7b9" stroke-width="1.51"/><path d="M-63,493L-81,549L-29,490Z" fill="#b3a8b9" stroke="#b3a8b9" stroke-width="1.51"/><path d="M-81,549L-59,668L-18,647Z" fill="#a2a8ba" stroke="#a2a8ba" stroke-width="1.51"/><path d="M-102,135L-17,177L-13,125Z" fill="#fec8ca" stroke="#fec8ca" stroke-width="1.51"/><path d="M-75,24L-102,135L-13,125Z" fill="#fcdcdd" stroke="#fcdcdd" stroke-width="1.51"/><path d="M-10,-8L-75,24L-8,30Z" fill="#f6f6f6" stroke="#f6f6f6" stroke-width="1.51"/><path d="M-83,-51L-75,24L-10,-8Z" fill="#f7f7f7" stroke="#f7f7f7" stroke-width="1.51"/><path d="M-30,427L-63,493L-29,490Z" fill="#bfaaba" stroke="#bfaaba" stroke-width="1.51"/><path d="M-102,135L-80,216L-17,177Z" fill="#ffbdc0" stroke="#ffbdc0" stroke-width="1.51"/><path d="M-97,402L-63,493L-30,427Z" fill="#c8adbc" stroke="#c8adbc" stroke-width="1.51"/><path d="M-75,368L-97,402L-30,427Z" fill="#d4b0bd" stroke="#d4b0bd" stroke-width="1.51"/><path d="M-80,216L-97,402L-75,368Z" fill="#e6b5be" stroke="#e6b5be" stroke-width="1.51"/><path d="M-80,216L-75,368L-59,262Z" fill="#eeb6bd" stroke="#eeb6bd" stroke-width="1.51"/><path d="M-97,402L-81,549L-63,493Z" fill="#bdabbb" stroke="#bdabbb" stroke-width="1.51"/><path d="M-83,-51L-100,-88L-75,24Z" fill="#f9f9f9" stroke="#f9f9f9" stroke-width="1.51"/><path d="M-100,-88L-102,135L-75,24Z" fill="#f7f6f6" stroke="#f7f6f6" stroke-width="1.51"/><path d="M-102,135L-97,402L-80,216Z" fill="#f4b7be" stroke="#f4b7be" stroke-width="1.51"/></svg>